<?xml version="1.0" encoding="UTF-8"?>
<svg id="Layer_2" data-name="Layer 2" xmlns="http://www.w3.org/2000/svg" viewBox="0 0 1600 400">
  <defs>
    <style>
      .cls-1 {
        fill: #e10600;
      }
    </style>
  </defs>
  <g id="Layer_1-2" data-name="Layer 1">
    <path class="cls-1" d="M1367.21,312.5c12.62,0,23.04,4.21,31.29,12.67s12.38,18.83,12.38,31.17-4.09,22.71-12.3,31.08c-8.2,8.38-18.58,12.58-31.2,12.58s-23.13-4.21-31.46-12.67c-8.38-8.46-12.54-18.83-12.54-31.17s4.16-22.71,12.45-31.08c8.3-8.38,18.76-12.58,31.38-12.58ZM1167.04,149.79h-531.75c-133.33,0-161.71,10.29-231.62,78.08h.04l-177.42,172.12H0L281.54,120.58C386.21,17,436.67,0,615.12,0h704.92l-153,149.79ZM1144.21,173.71l-140.25,140.25h-362.84c-66.5,0-81.21,3.12-114.21,36.12l-49.92,49.92h-209.83l155.12-155.12c60.92-60.88,81.92-71.17,216.21-71.17h505.71ZM1600,0l-401.08,400h-248.05L1350.88,0h249.12ZM1367.13,319.38c-10.34,0-19,3.58-26,10.75-6.96,7.17-10.46,15.83-10.46,26.04s3.5,18.87,10.46,26.04c6.96,7.17,15.62,10.75,26,10.75s19-3.54,26-10.67c6.96-7.12,10.45-15.79,10.45-26.04s-3.49-18.96-10.45-26.12-15.63-10.75-26-10.75ZM1367.21,332.08c6.29,0,11.04,1.17,14.21,3.54,3.16,2.33,4.75,5.88,4.75,10.58s-.63,8.21-1.92,10.5c-1.29,2.29-3.46,4.12-6.54,5.54l9.12,18.42h-10.12l-8.29-17.17h-9.79l-.05-.04v17.17h-9.62v-48.54h18.25ZM1358.42,355.92h9.79c3,0,5.17-.62,6.46-1.92,1.33-1.29,2-3.38,2-6.25,0-5.46-3.42-8.17-10.29-8.17h-7.96v16.33Z"/>
  </g>
</svg>